<svg xmlns="http://www.w3.org/2000/svg" width="34" height="36" viewBox="0 0 34 36" fill="none">
    <path d="M0 18C0 9.16344 7.16344 2 16 2C24.8366 2 32 9.16344 32 18C32 26.8366 24.8366 34 16 34C7.16344 34 0 26.8366 0 18Z" fill="#717684"/>
    <path d="M17.2137 12.8181H18.7449V20.0368C18.7449 20.6898 18.6157 21.2482 18.3572 21.7123C18.1019 22.1763 17.7423 22.5309 17.2783 22.7762C16.8143 23.0181 16.2707 23.1391 15.6476 23.1391C15.0742 23.1391 14.5589 23.0347 14.1015 22.8259C13.6474 22.6171 13.2878 22.3138 13.0226 21.9161C12.7608 21.5151 12.6299 21.0278 12.6299 20.4544H14.1562C14.1562 20.7362 14.2208 20.9798 14.3501 21.1853C14.4826 21.3908 14.6633 21.5515 14.892 21.6675C15.124 21.7802 15.3891 21.8365 15.6874 21.8365C16.0122 21.8365 16.2873 21.7686 16.5127 21.6327C16.7414 21.4935 16.9154 21.2897 17.0347 21.0212C17.154 20.7527 17.2137 20.4246 17.2137 20.0368V12.8181Z" fill="white"/>
    <path d="M23 30C23 32.7614 25.2386 35 28 35C30.7614 35 33 32.7614 33 30C33 27.2386 30.7614 25 28 25C25.2386 25 23 27.2386 23 30Z" fill="#26BD6C"/>
    <path d="M23 30C23 32.7614 25.2386 35 28 35C30.7614 35 33 32.7614 33 30C33 27.2386 30.7614 25 28 25C25.2386 25 23 27.2386 23 30Z" stroke="white" stroke-width="2"/>
</svg>