<svg xmlns="http://www.w3.org/2000/svg" width="20" height="20" viewBox="0 0 20 20" fill="none">
    <path d="M14.9998 8.33342C14.9998 7.00733 14.4731 5.73556 13.5354 4.79788C12.5977 3.8602 11.3259 3.33341 9.99984 3.33341C8.67376 3.33341 7.40199 3.8602 6.4643 4.79788C5.52662 5.73556 4.99984 7.00733 4.99984 8.33342V15.0001H14.9998V8.33342ZM16.6665 15.5559L16.9998 16.0001C17.0463 16.062 17.0745 16.1356 17.0815 16.2127C17.0884 16.2897 17.0738 16.3672 17.0392 16.4364C17.0046 16.5056 16.9514 16.5638 16.8856 16.6045C16.8197 16.6452 16.7439 16.6667 16.6665 16.6667H3.33317C3.25579 16.6667 3.17994 16.6452 3.11412 16.6045C3.04829 16.5638 2.9951 16.5056 2.96049 16.4364C2.92589 16.3672 2.91124 16.2897 2.91819 16.2127C2.92514 16.1356 2.95341 16.062 2.99984 16.0001L3.33317 15.5559V8.33342C3.33317 6.5653 4.03555 4.86961 5.28579 3.61937C6.53604 2.36913 8.23173 1.66675 9.99984 1.66675C11.7679 1.66675 13.4636 2.36913 14.7139 3.61937C15.9641 4.86961 16.6665 6.5653 16.6665 8.33342V15.5559ZM7.9165 17.5001H12.0832C12.0832 18.0526 11.8637 18.5825 11.473 18.9732C11.0823 19.3639 10.5524 19.5834 9.99984 19.5834C9.4473 19.5834 8.9174 19.3639 8.5267 18.9732C8.136 18.5825 7.9165 18.0526 7.9165 17.5001V17.5001Z" fill="#0F1324" fill-opacity="0.6"/>
</svg>