<svg width="1291" height="355" viewBox="0 0 1291 355" fill="none" xmlns="http://www.w3.org/2000/svg">
    <rect width="67.909" height="67.909" rx="13.5818" fill="white"/>
    <rect x="81.4907" width="67.909" height="67.909" rx="13.5818" fill="white"/>
    <rect x="162.982" width="67.909" height="67.909" rx="13.5818" fill="white"/>
    <rect x="244.473" width="67.909" height="67.909" rx="13.5818" fill="white"/>
    <rect y="87.9089" width="67.909" height="67.909" rx="13.5818" fill="white"/>
    <rect x="81.4907" y="87.9089" width="67.909" height="67.909" rx="13.5818" fill="#0B0C0E"/>
    <rect x="162.982" y="87.9089" width="67.909" height="67.909" rx="13.5818" fill="white"/>
    <rect x="244.473" y="87.9089" width="67.909" height="67.909" rx="13.5818" fill="white"/>
    <rect y="175.818" width="67.909" height="67.909" rx="13.5818" fill="white"/>
    <rect x="81.4907" y="175.818" width="67.909" height="67.909" rx="13.5818" fill="white"/>
    <rect x="162.982" y="175.818" width="67.909" height="67.909" rx="13.5818" fill="white"/>
    <rect x="244.473" y="175.818" width="67.909" height="67.909" rx="13.5818" fill="white"/>
    <rect y="263.727" width="67.909" height="67.909" rx="13.5818" fill="url(#paint0_linear_177_20303)"/>
    <rect x="81.4907" y="263.727" width="67.909" height="67.909" rx="13.5818" fill="url(#paint1_linear_177_20303)"/>
    <rect x="162.982" y="263.727" width="67.909" height="67.909" rx="13.5818" fill="url(#paint2_linear_177_20303)"/>
    <rect x="244.473" y="263.727" width="67.909" height="67.909" rx="13.5818" fill="url(#paint3_linear_177_20303)"/>
    <rect x="325.963" width="67.909" height="67.909" rx="13.5818" fill="url(#paint4_linear_177_20303)"/>
    <rect x="407.454" width="67.909" height="67.909" rx="13.5818" fill="white"/>
    <rect x="488.945" width="67.909" height="67.909" rx="13.5818" fill="white"/>
    <rect x="570.436" width="67.909" height="67.909" rx="13.5818" fill="white"/>
    <rect x="325.963" y="87.9089" width="67.909" height="67.909" rx="13.5818" fill="white"/>
    <rect x="407.454" y="87.9089" width="67.909" height="67.909" rx="13.5818" fill="white"/>
    <rect x="488.945" y="87.9089" width="67.909" height="67.909" rx="13.5818" fill="white"/>
    <rect x="570.436" y="87.9089" width="67.909" height="67.909" rx="13.5818" fill="white"/>
    <rect x="325.963" y="175.818" width="67.909" height="67.909" rx="13.5818" fill="url(#paint5_linear_177_20303)"/>
    <rect x="407.454" y="175.818" width="67.909" height="67.909" rx="13.5818" fill="white"/>
    <rect x="488.945" y="175.818" width="67.909" height="67.909" rx="13.5818" fill="white"/>
    <rect x="570.436" y="175.818" width="67.909" height="67.909" rx="13.5818" fill="white"/>
    <rect x="325.963" y="263.727" width="67.909" height="67.909" rx="13.5818" fill="url(#paint6_linear_177_20303)"/>
    <rect x="407.454" y="263.727" width="67.909" height="67.909" rx="13.5818" fill="url(#paint7_linear_177_20303)"/>
    <rect x="488.945" y="263.727" width="67.909" height="67.909" rx="13.5818" fill="url(#paint8_linear_177_20303)"/>
    <rect x="570.436" y="263.727" width="67.909" height="67.909" rx="13.5818" fill="url(#paint9_linear_177_20303)"/>
    <rect x="651.927" width="67.909" height="67.909" rx="13.5818" fill="white"/>
    <rect x="733.417" width="67.909" height="67.909" rx="13.5818" fill="white"/>
    <rect x="814.908" width="67.909" height="67.909" rx="13.5818" fill="white"/>
    <rect x="896.399" width="67.909" height="67.909" rx="13.5818" fill="white"/>
    <rect x="651.927" y="87.9089" width="67.909" height="67.909" rx="13.5818" fill="white"/>
    <rect x="733.417" y="87.9089" width="67.909" height="67.909" rx="13.5818" fill="#F7F7F8"/>
    <rect x="814.908" y="87.9089" width="67.909" height="67.909" rx="13.5818" fill="#0B0C0E"/>
    <rect x="896.399" y="87.9089" width="67.909" height="67.909" rx="13.5818" fill="white"/>
    <rect x="651.927" y="175.818" width="67.909" height="67.909" rx="13.5818" fill="white"/>
    <rect x="733.417" y="175.818" width="67.909" height="67.909" rx="13.5818" fill="white"/>
    <rect x="814.908" y="175.818" width="67.909" height="67.909" rx="13.5818" fill="white"/>
    <rect x="896.399" y="175.818" width="67.909" height="67.909" rx="13.5818" fill="#0B0C0E"/>
    <rect x="651.927" y="263.727" width="67.909" height="67.909" rx="13.5818" fill="url(#paint10_linear_177_20303)"/>
    <rect x="733.417" y="263.727" width="67.909" height="67.909" rx="13.5818" fill="url(#paint11_linear_177_20303)"/>
    <rect x="814.908" y="263.727" width="67.909" height="67.909" rx="13.5818" fill="url(#paint12_linear_177_20303)"/>
    <rect x="896.399" y="263.727" width="67.909" height="67.909" rx="13.5818" fill="url(#paint13_linear_177_20303)"/>
    <rect x="977.89" width="67.909" height="67.909" rx="13.5818" fill="white"/>
    <rect x="1059.38" width="67.909" height="67.909" rx="13.5818" fill="white"/>
    <rect x="1140.87" width="67.909" height="67.909" rx="13.5818" fill="white"/>
    <rect x="1222.36" width="67.909" height="67.909" rx="13.5818" fill="#E9EAEC"/>
    <rect x="977.89" y="87.9089" width="67.909" height="67.909" rx="13.5818" fill="white"/>
    <rect x="1059.38" y="87.9089" width="67.909" height="67.909" rx="13.5818" fill="#14151A"/>
    <rect x="1140.87" y="87.9089" width="67.909" height="67.909" rx="13.5818" fill="white"/>
    <rect x="1222.36" y="87.9089" width="67.909" height="67.909" rx="13.5818" fill="white"/>
    <rect x="977.89" y="175.818" width="67.909" height="67.909" rx="13.5818" fill="url(#paint14_linear_177_20303)"/>
    <rect x="1059.38" y="175.818" width="67.909" height="67.909" rx="13.5818" fill="white"/>
    <rect x="1140.87" y="175.818" width="67.909" height="67.909" rx="13.5818" fill="white"/>
    <rect x="1222.36" y="175.818" width="67.909" height="67.909" rx="13.5818" fill="white"/>
    <rect x="977.89" y="263.727" width="67.909" height="67.909" rx="13.5818" fill="url(#paint15_linear_177_20303)"/>
    <rect x="1059.38" y="263.727" width="67.909" height="67.909" rx="13.5818" fill="url(#paint16_linear_177_20303)"/>
    <rect x="1140.87" y="263.727" width="67.909" height="67.909" rx="13.5818" fill="url(#paint17_linear_177_20303)"/>
    <rect x="1222.36" y="263.727" width="67.909" height="67.909" rx="13.5818" fill="url(#paint18_linear_177_20303)"/>
    <rect y="351.636" width="67.909" height="67.909" rx="13.5818" fill="white"/>
    <rect x="81.4907" y="351.636" width="67.909" height="67.909" rx="13.5818" fill="white"/>
    <rect x="162.982" y="351.636" width="67.909" height="67.909" rx="13.5818" fill="white"/>
    <rect x="244.473" y="351.636" width="67.909" height="67.909" rx="13.5818" fill="white"/>
    <rect x="325.963" y="351.636" width="67.909" height="67.909" rx="13.5818" fill="url(#paint19_linear_177_20303)"/>
    <rect x="407.454" y="351.636" width="67.909" height="67.909" rx="13.5818" fill="white"/>
    <rect x="488.945" y="351.636" width="67.909" height="67.909" rx="13.5818" fill="white"/>
    <rect x="570.436" y="351.636" width="67.909" height="67.909" rx="13.5818" fill="white"/>
    <rect x="651.927" y="351.636" width="67.909" height="67.909" rx="13.5818" fill="white"/>
    <rect x="733.417" y="351.636" width="67.909" height="67.909" rx="13.5818" fill="white"/>
    <rect x="814.908" y="351.636" width="67.909" height="67.909" rx="13.5818" fill="white"/>
    <rect x="896.399" y="351.636" width="67.909" height="67.909" rx="13.5818" fill="white"/>
    <rect x="977.89" y="351.636" width="67.909" height="67.909" rx="13.5818" fill="white"/>
    <rect x="1059.38" y="351.636" width="67.909" height="67.909" rx="13.5818" fill="white"/>
    <rect x="1140.87" y="351.636" width="67.909" height="67.909" rx="13.5818" fill="white"/>
    <rect x="1222.36" y="351.636" width="67.909" height="67.909" rx="13.5818" fill="#E9EAEC"/>
    <defs>
        <linearGradient id="paint0_linear_177_20303" x1="33.9545" y1="263.727" x2="33.9545" y2="331.636" gradientUnits="userSpaceOnUse">
            <stop stop-color="white"/>
            <stop offset="1" stop-color="#EDEFF2"/>
        </linearGradient>
        <linearGradient id="paint1_linear_177_20303" x1="115.445" y1="263.727" x2="115.445" y2="331.636" gradientUnits="userSpaceOnUse">
            <stop stop-color="white"/>
            <stop offset="1" stop-color="#EDEFF2"/>
        </linearGradient>
        <linearGradient id="paint2_linear_177_20303" x1="196.936" y1="263.727" x2="196.936" y2="331.636" gradientUnits="userSpaceOnUse">
            <stop stop-color="white"/>
            <stop offset="1" stop-color="#EDEFF2"/>
        </linearGradient>
        <linearGradient id="paint3_linear_177_20303" x1="278.427" y1="263.727" x2="278.427" y2="331.636" gradientUnits="userSpaceOnUse">
            <stop stop-color="white"/>
            <stop offset="1" stop-color="#EDEFF2"/>
        </linearGradient>
        <linearGradient id="paint4_linear_177_20303" x1="359.918" y1="0" x2="359.918" y2="67.909" gradientUnits="userSpaceOnUse">
            <stop stop-color="white"/>
            <stop offset="1" stop-color="#EDEFF2"/>
        </linearGradient>
        <linearGradient id="paint5_linear_177_20303" x1="359.918" y1="175.818" x2="359.918" y2="243.727" gradientUnits="userSpaceOnUse">
            <stop stop-color="white"/>
            <stop offset="1" stop-color="#EDEFF2"/>
        </linearGradient>
        <linearGradient id="paint6_linear_177_20303" x1="359.918" y1="263.727" x2="359.918" y2="331.636" gradientUnits="userSpaceOnUse">
            <stop stop-color="white"/>
            <stop offset="1" stop-color="#EDEFF2"/>
        </linearGradient>
        <linearGradient id="paint7_linear_177_20303" x1="441.409" y1="263.727" x2="441.409" y2="331.636" gradientUnits="userSpaceOnUse">
            <stop stop-color="white"/>
            <stop offset="1" stop-color="#EDEFF2"/>
        </linearGradient>
        <linearGradient id="paint8_linear_177_20303" x1="522.9" y1="263.727" x2="522.9" y2="331.636" gradientUnits="userSpaceOnUse">
            <stop stop-color="white"/>
            <stop offset="1" stop-color="#EDEFF2"/>
        </linearGradient>
        <linearGradient id="paint9_linear_177_20303" x1="604.391" y1="263.727" x2="604.391" y2="331.636" gradientUnits="userSpaceOnUse">
            <stop stop-color="white"/>
            <stop offset="1" stop-color="#EDEFF2"/>
        </linearGradient>
        <linearGradient id="paint10_linear_177_20303" x1="685.881" y1="263.727" x2="685.881" y2="331.636" gradientUnits="userSpaceOnUse">
            <stop stop-color="white"/>
            <stop offset="1" stop-color="#EDEFF2"/>
        </linearGradient>
        <linearGradient id="paint11_linear_177_20303" x1="767.372" y1="263.727" x2="767.372" y2="331.636" gradientUnits="userSpaceOnUse">
            <stop stop-color="white"/>
            <stop offset="1" stop-color="#EDEFF2"/>
        </linearGradient>
        <linearGradient id="paint12_linear_177_20303" x1="848.863" y1="263.727" x2="848.863" y2="331.636" gradientUnits="userSpaceOnUse">
            <stop stop-color="white"/>
            <stop offset="1" stop-color="#EDEFF2"/>
        </linearGradient>
        <linearGradient id="paint13_linear_177_20303" x1="930.354" y1="263.727" x2="930.354" y2="331.636" gradientUnits="userSpaceOnUse">
            <stop stop-color="white"/>
            <stop offset="1" stop-color="#EDEFF2"/>
        </linearGradient>
        <linearGradient id="paint14_linear_177_20303" x1="1011.84" y1="175.818" x2="1011.84" y2="243.727" gradientUnits="userSpaceOnUse">
            <stop stop-color="white"/>
            <stop offset="1" stop-color="#EDEFF2"/>
        </linearGradient>
        <linearGradient id="paint15_linear_177_20303" x1="1011.84" y1="263.727" x2="1011.84" y2="331.636" gradientUnits="userSpaceOnUse">
            <stop stop-color="white"/>
            <stop offset="1" stop-color="#EDEFF2"/>
        </linearGradient>
        <linearGradient id="paint16_linear_177_20303" x1="1093.34" y1="263.727" x2="1093.34" y2="331.636" gradientUnits="userSpaceOnUse">
            <stop stop-color="white"/>
            <stop offset="1" stop-color="#EDEFF2"/>
        </linearGradient>
        <linearGradient id="paint17_linear_177_20303" x1="1174.83" y1="263.727" x2="1174.83" y2="331.636" gradientUnits="userSpaceOnUse">
            <stop stop-color="white"/>
            <stop offset="1" stop-color="#EDEFF2"/>
        </linearGradient>
        <linearGradient id="paint18_linear_177_20303" x1="1256.32" y1="263.727" x2="1256.32" y2="331.636" gradientUnits="userSpaceOnUse">
            <stop stop-color="white"/>
            <stop offset="1" stop-color="#EDEFF2"/>
        </linearGradient>
        <linearGradient id="paint19_linear_177_20303" x1="359.918" y1="351.636" x2="359.918" y2="419.545" gradientUnits="userSpaceOnUse">
            <stop stop-color="white"/>
            <stop offset="1" stop-color="#EDEFF2"/>
        </linearGradient>
    </defs>
</svg>
