<svg xmlns="http://www.w3.org/2000/svg" width="28" height="28" viewBox="0 0 28 28" fill="none">
    <g filter="url(#filter0_d_281_12145)">
        <path d="M2 5.8C2 3.14903 4.14903 1 6.8 1H21.2C23.851 1 26 3.14903 26 5.8V20.2C26 22.851 23.851 25 21.2 25H6.8C4.14903 25 2 22.851 2 20.2V5.8Z" fill="white"/>
        <path d="M2.6 5.8C2.6 3.4804 4.4804 1.6 6.8 1.6H21.2C23.5196 1.6 25.4 3.4804 25.4 5.8V20.2C25.4 22.5196 23.5196 24.4 21.2 24.4H6.8C4.4804 24.4 2.6 22.5196 2.6 20.2V5.8Z" stroke="#DEE0E3" stroke-width="1.2"/>
    </g>
    <defs>
        <filter id="filter0_d_281_12145" x="0" y="0" width="28" height="28" filterUnits="userSpaceOnUse" color-interpolation-filters="sRGB">
            <feFlood flood-opacity="0" result="BackgroundImageFix"/>
            <feColorMatrix in="SourceAlpha" type="matrix" values="0 0 0 0 0 0 0 0 0 0 0 0 0 0 0 0 0 0 127 0" result="hardAlpha"/>
            <feOffset dy="1"/>
            <feGaussianBlur stdDeviation="1"/>
            <feComposite in2="hardAlpha" operator="out"/>
            <feColorMatrix type="matrix" values="0 0 0 0 0.0784314 0 0 0 0 0.0823529 0 0 0 0 0.101961 0 0 0 0.05 0"/>
            <feBlend mode="normal" in2="BackgroundImageFix" result="effect1_dropShadow_281_12145"/>
            <feBlend mode="normal" in="SourceGraphic" in2="effect1_dropShadow_281_12145" result="shape"/>
        </filter>
    </defs>
</svg>