<svg xmlns="http://www.w3.org/2000/svg" width="20" height="20" viewBox="0 0 20 20" fill="none">
    <path d="M9.99984 18.3334C5.39734 18.3334 1.6665 14.6026 1.6665 10.0001C1.6665 5.39758 5.39734 1.66675 9.99984 1.66675C14.6023 1.66675 18.3332 5.39758 18.3332 10.0001C18.3332 14.6026 14.6023 18.3334 9.99984 18.3334ZM9.99984 16.6667C11.7679 16.6667 13.4636 15.9644 14.7139 14.7141C15.9641 13.4639 16.6665 11.7682 16.6665 10.0001C16.6665 8.23197 15.9641 6.53628 14.7139 5.28604C13.4636 4.03579 11.7679 3.33341 9.99984 3.33341C8.23173 3.33341 6.53603 4.03579 5.28579 5.28604C4.03555 6.53628 3.33317 8.23197 3.33317 10.0001C3.33317 11.7682 4.03555 13.4639 5.28579 14.7141C6.53603 15.9644 8.23173 16.6667 9.99984 16.6667V16.6667ZM5.83317 9.58342L13.3332 6.66675L10.4165 14.1684L9.1665 10.8334L5.83317 9.58342Z" fill="#0F1324" fill-opacity="0.6"/>
</svg>