<svg width="126" height="40" viewBox="0 0 126 40" fill="none" xmlns="http://www.w3.org/2000/svg">
    <path d="M5.46229 13.2247C2.99005 13.2247 0.999756 15.215 0.999756 17.6873V35.5375C0.999756 38.0097 2.99005 40 5.46229 40H23.3124C25.7847 40 27.775 38.0097 27.775 35.5375V26.6124H14.3874V13.2247H5.46229Z" fill="black"/>
    <path d="M16.6189 10.9935H25.544C28.0162 10.9935 30.0065 12.9838 30.0065 15.456V24.3811H16.6189V10.9935Z" fill="black"/>
    <path d="M1 0V4.96902C1 5.95486 1.79918 6.75404 2.78502 6.75404H20.412C21.3979 6.75404 22.1971 7.55322 22.1971 8.53905V10.5472" stroke="black" stroke-width="0.931556" stroke-dasharray="0.89 0.89"/>
    <path d="M46.0066 39.6905V8H65.0085V11.4043H49.8441V22.1122H63.5849V25.5164H49.8441V39.6905H46.0066Z" fill="#14151A"/>
    <path d="M74.7377 8V39.6905H71.0859V8H74.7377Z" fill="#14151A"/>
    <path d="M96.405 29.9729V15.9226H100.057V39.6905H96.405V35.6673H96.1575C95.6004 36.8743 94.7339 37.9007 93.5579 38.7466C92.3818 39.5822 90.8963 40 89.1014 40C87.6159 40 86.2954 39.675 85.1401 39.0251C83.9847 38.3649 83.0769 37.3746 82.4167 36.0542C81.7564 34.7234 81.4263 33.0471 81.4263 31.0251V15.9226H85.0782V30.7776C85.0782 32.5106 85.563 33.893 86.5327 34.9246C87.5127 35.9562 88.7609 36.472 90.2774 36.472C91.1852 36.472 92.1085 36.2398 93.0472 35.7756C93.9963 35.3114 94.7906 34.5996 95.4302 33.6402C96.0801 32.6809 96.405 31.4584 96.405 29.9729Z" fill="#14151A"/>
    <path d="M109.469 15.9226L115.163 25.6402L120.858 15.9226H125.067L117.392 27.8066L125.067 39.6905H120.858L115.163 30.4681L109.469 39.6905H105.26L112.811 27.8066L105.26 15.9226H109.469Z" fill="#14151A"/>
</svg>
