<svg xmlns="http://www.w3.org/2000/svg" width="25" height="24" viewBox="0 0 25 24" fill="none">
    <path d="M12.3038 0C5.50597 0 1.7958e-06 5.50596 1.7958e-06 12.3038C-0.00139373 14.8867 0.810595 17.4045 2.32077 19.4999C3.83094 21.5954 5.96262 23.162 8.41336 23.9777C9.02855 24.0847 9.25863 23.7156 9.25863 23.392C9.25863 23.1004 9.24264 22.1321 9.24264 21.1011C6.15192 21.6707 5.35217 20.3481 5.10609 19.6554C4.96706 19.301 4.36786 18.2097 3.84495 17.9168C3.41431 17.6868 2.79912 17.1171 3.82895 17.1023C4.79849 17.0863 5.48997 17.9943 5.72128 18.3635C6.82863 20.2238 8.59792 19.7009 9.30416 19.3785C9.41243 18.5788 9.73479 18.0411 10.0891 17.7335C7.35154 17.4259 4.4909 16.3641 4.4909 11.6579C4.4909 10.3192 4.96706 9.2131 5.75204 8.35061C5.629 8.04301 5.19837 6.78187 5.87508 5.09009C5.87508 5.09009 6.90491 4.76773 9.25863 6.35247C10.2602 6.07447 11.2951 5.93456 12.3346 5.9366C13.3804 5.9366 14.4262 6.0744 15.4105 6.35123C17.763 4.75174 18.7941 5.09132 18.7941 5.09132C19.4708 6.7831 19.0402 8.04424 18.9171 8.35184C19.7009 9.21311 20.1783 10.3045 20.1783 11.6579C20.1783 16.3801 17.3029 17.4259 14.5653 17.7335C15.0107 18.1174 15.3958 18.8556 15.3958 20.0097C15.3958 21.6547 15.3798 22.9774 15.3798 23.3933C15.3798 23.7156 15.6111 24.0995 16.2263 23.9765C18.6686 23.1519 20.7909 21.5821 22.2944 19.4882C23.7979 17.3943 24.607 14.8816 24.6077 12.3038C24.6077 5.50596 19.1017 0 12.3038 0Z" fill="white"/>
</svg>