<svg xmlns="http://www.w3.org/2000/svg" width="20" height="20" viewBox="0 0 20 20" fill="none">
    <path d="M5.78333 11.6967C5.58917 12.2167 5.425 12.6967 5.27833 13.1826C6.07833 12.6017 7.02917 12.2334 8.12667 12.0959C10.2208 11.8342 12.0817 10.4517 13.0233 8.71425L11.81 7.50175L12.9875 6.32258L13.8208 5.48841C14.1792 5.13008 14.5833 4.46841 15.0108 3.51508C10.35 4.23758 7.49583 7.09175 5.7825 11.6967H5.78333ZM14.1667 7.50092L15 8.33342C14.1667 10.8334 11.6667 13.3334 8.33333 13.7501C6.10917 14.0284 4.72 15.5559 4.165 18.3334H2.5C3.33333 13.3334 5 1.66675 17.5 1.66675C16.6667 4.16425 15.835 5.83008 15.0025 6.66425L14.1667 7.50092Z" fill="#0F1324" fill-opacity="0.6"/>
</svg>